<svg width="24" height="22" viewBox="0 0 24 22" fill="none" xmlns="http://www.w3.org/2000/svg">
<path d="M12 16.9733C13.3929 16.9733 14.5702 16.4929 15.532 15.532C16.4938 14.5711 16.9747 13.3938 16.9747 12C16.9747 10.6062 16.4938 9.42889 15.532 8.468C14.5702 7.50711 13.3929 7.02622 12 7.02533C10.6071 7.02444 9.42978 7.50533 8.468 8.468C7.50622 9.43067 7.02533 10.608 7.02533 12C7.02533 13.392 7.50622 14.5693 8.468 15.532C9.42978 16.4947 10.6071 16.9756 12 16.9747M12 15.6413C10.9644 15.6413 10.0987 15.2933 9.40267 14.5973C8.70667 13.9013 8.35867 13.0356 8.35867 12C8.35867 10.9644 8.70667 10.0987 9.40267 9.40267C10.0987 8.70667 10.9644 8.35867 12 8.35867C13.0356 8.35867 13.9013 8.70667 14.5973 9.40267C15.2933 10.0987 15.6413 10.9644 15.6413 12C15.6413 13.0356 15.2933 13.9013 14.5973 14.5973C13.9013 15.2933 13.0356 15.6413 12 15.6413ZM2.15467 21.3333C1.54044 21.3333 1.028 21.128 0.617333 20.7173C0.206667 20.3067 0.000888889 19.7938 0 19.1787V4.82133C0 4.20711 0.205778 3.69467 0.617333 3.284C1.02889 2.87333 1.54089 2.66756 2.15333 2.66667H6.09733L8.564 0H15.436L17.9027 2.66667H21.8467C22.46 2.66667 22.972 2.87244 23.3827 3.284C23.7933 3.69556 23.9991 4.208 24 4.82133V19.18C24 19.7933 23.7942 20.3058 23.3827 20.7173C22.9711 21.1289 22.4591 21.3342 21.8467 21.3333H2.15467ZM2.15467 20H21.8467C22.0858 20 22.2822 19.9231 22.436 19.7693C22.5898 19.6156 22.6667 19.4191 22.6667 19.18V4.82C22.6667 4.58089 22.5898 4.38444 22.436 4.23067C22.2822 4.07689 22.0858 4 21.8467 4H17.3173L14.8587 1.33333H9.14133L6.68267 4H2.15333C1.91422 4 1.71778 4.07689 1.564 4.23067C1.41022 4.38444 1.33333 4.58133 1.33333 4.82133V19.18C1.33333 19.4191 1.41022 19.6156 1.564 19.7693C1.71778 19.9231 1.91467 20 2.15467 20Z" fill="#FFA902"/>
</svg>
