<svg width="183" height="41" viewBox="0 0 183 41" fill="none" xmlns="http://www.w3.org/2000/svg">
<path d="M65.3386 33V12.2301H57.2068V9.28235H76.8247V12.2301H68.6929V33H65.3386ZM84.5234 33V15.0424H87.6406V19.9214L87.3356 18.7016C87.8326 17.4593 88.6683 16.5106 89.8429 15.8555C91.0175 15.2005 92.4632 14.8729 94.1799 14.8729V18.024C94.0443 18.0014 93.9088 17.9901 93.7733 17.9901C93.6603 17.9901 93.5474 17.9901 93.4345 17.9901C91.6952 17.9901 90.3173 18.5096 89.3008 19.5487C88.2843 20.5878 87.7761 22.0899 87.7761 24.0551V33H84.5234ZM112.926 33V29.2052L112.756 28.4936V22.0221C112.756 20.6442 112.35 19.5826 111.536 18.8372C110.746 18.0692 109.549 17.6852 107.945 17.6852C106.883 17.6852 105.844 17.8659 104.828 18.2273C103.811 18.5661 102.953 19.0292 102.253 19.6165L100.897 17.1769C101.823 16.4315 102.93 15.8668 104.218 15.4828C105.528 15.0762 106.894 14.8729 108.318 14.8729C110.78 14.8729 112.677 15.4715 114.01 16.6687C115.342 17.8659 116.009 19.6955 116.009 22.1576V33H112.926ZM107.03 33.2033C105.697 33.2033 104.523 32.9774 103.506 32.5256C102.512 32.0739 101.744 31.4527 101.202 30.6621C100.66 29.8489 100.389 28.9341 100.389 27.9176C100.389 26.9464 100.615 26.0654 101.067 25.2748C101.541 24.4842 102.298 23.8518 103.337 23.3774C104.398 22.9031 105.822 22.6659 107.606 22.6659H113.298V25.0038H107.742C106.115 25.0038 105.02 25.2748 104.455 25.8169C103.89 26.3591 103.608 27.0141 103.608 27.7821C103.608 28.6631 103.958 29.3746 104.658 29.9167C105.358 30.4362 106.33 30.696 107.572 30.696C108.792 30.696 109.854 30.4249 110.757 29.8828C111.683 29.3407 112.35 28.5501 112.756 27.5111L113.4 29.7473C112.971 30.8089 112.214 31.656 111.13 32.2885C110.046 32.8984 108.679 33.2033 107.03 33.2033ZM131.32 33L123.459 15.0424H126.847L133.827 31.3059H132.201L139.316 15.0424H142.501L134.64 33H131.32ZM157.95 33.2033C156.03 33.2033 154.336 32.808 152.867 32.0174C151.422 31.2268 150.292 30.1426 149.479 28.7647C148.688 27.3868 148.293 25.8056 148.293 24.0212C148.293 22.2367 148.677 20.6555 149.445 19.2776C150.236 17.8998 151.309 16.8268 152.664 16.0588C154.042 15.2682 155.589 14.8729 157.306 14.8729C159.045 14.8729 160.581 15.2569 161.914 16.0249C163.247 16.7929 164.286 17.8772 165.031 19.2776C165.799 20.6555 166.183 22.2706 166.183 24.1228C166.183 24.2584 166.172 24.4165 166.149 24.5972C166.149 24.7779 166.138 24.9473 166.115 25.1054H150.834V22.7675H164.421L163.1 23.5807C163.122 22.4287 162.885 21.4009 162.388 20.4974C161.891 19.5939 161.202 18.8936 160.321 18.3967C159.463 17.8772 158.458 17.6174 157.306 17.6174C156.176 17.6174 155.171 17.8772 154.29 18.3967C153.409 18.8936 152.72 19.6052 152.224 20.5313C151.727 21.4348 151.478 22.4739 151.478 23.6485V24.1906C151.478 25.3878 151.749 26.4607 152.291 27.4094C152.856 28.3355 153.635 29.0584 154.629 29.5779C155.623 30.0974 156.764 30.3572 158.051 30.3572C159.113 30.3572 160.073 30.1765 160.931 29.8151C161.812 29.4536 162.58 28.9115 163.235 28.1887L165.031 30.2894C164.218 31.2381 163.201 31.9609 161.982 32.4579C160.784 32.9548 159.44 33.2033 157.95 33.2033ZM175.613 33V7.85929H178.865V33H175.613Z" fill="white"/>
<path d="M41 28.5H0.5" stroke="white" stroke-linecap="round"/>
<path d="M31 32.5H1" stroke="white" stroke-linecap="round"/>
<path fill-rule="evenodd" clip-rule="evenodd" d="M29.1633 4.26893L28.5 3C28.3616 3.46734 28.2241 3.92333 28.0871 4.36877C26.6769 8.95537 25.3239 12.4223 23.5856 15.622L19.2769 8.15908L18.6077 7C18.4657 7.43397 18.3248 7.85599 18.1845 8.26699C15.8394 15.1356 13.6519 18.9269 9.12277 24C8.8303 24.3276 8.52806 24.6605 8.21539 25H9.56886H17H18.2981H27.8453H29H38.8716H40L39.4773 24L29.1633 4.26893ZM27.2679 24H19.1083C20.8866 21.7736 22.3389 19.7314 23.5913 17.6319L27.2679 24ZM24.1695 16.6333L28.4226 24H38.3489L28.7431 5.62361C27.3404 10.0507 25.9574 13.4492 24.1695 16.6333ZM23.0166 16.6364C21.6099 19.0657 19.9466 21.3902 17.8239 24H10.4563C12.4517 21.7097 13.999 19.6257 15.3185 17.3417C16.6606 15.0187 17.7524 12.5139 18.8457 9.41227L23.0166 16.6364Z" fill="white"/>
</svg>
